<?xml version="1.0" encoding="utf-8"?>
<!-- Generator: Adobe Illustrator 24.0.1, SVG Export Plug-In . SVG Version: 6.00 Build 0)  -->
<svg version="1.1" id="Calque_1" xmlns="http://www.w3.org/2000/svg" xmlns:xlink="http://www.w3.org/1999/xlink" x="0px" y="0px"
	 viewBox="0 0 400 63.6" style="enable-background:new 0 0 400 63.6;" xml:space="preserve">
<style type="text/css">
	.st0{fill:#618B7C;}
</style>
<title>Plan de travail 1</title>
<g>
	<path class="st0" d="M26.7,0.5c7,0,13.6,2.9,18.3,8.5l0,0l0.2,0.1c0.2,0.2,0.4,0.6,0.6,0.8c0.4,0.8,0.6,1.5,0.6,2.3
		c-0.2,2.3-2.3,3.9-4.4,3.9c-1.1,0-2.3-0.4-3.1-1.3l0,0c-0.2-0.2-0.4-0.4-0.6-0.6l0,0c-5-6.4-14.2-7.5-20.5-2.5
		c-0.8,0.6-1.5,1.3-2.1,1.9l0,0c-0.4,0.4-0.6,0.8-0.8,1.1l0,0l0,0l0,0c-1.5,2.3-2.3,4.6-2.3,7.2c0,2.7,2.3,8,4.8,13.2
		s5.5,11.1,7.4,14.2c0.8,1.1,2.1,1.3,3.1,0.8c0.2-0.2,0.6-0.4,0.8-0.8c1.9-3.1,5-9.2,7.6-14.2c0.8-1.7,1.7-3.1,2.3-4.6h-8
		c-1.1,0-2.3-0.4-3.1-1.3l0,0c-1.7-1.5-1.7-4-0.2-5.7l0.2-0.2c0.9-0.8,2.1-1.3,3.1-1.3H45c2.4,0,4.4,1.9,4.4,4.2l0,0
		c0,0.2,0,0.6-0.2,0.8l0,0c0,0.2,0,0.4-0.2,0.4l0,0c-0.2,0.9-0.6,1.9-0.9,2.7c-1.5,3.7-3.3,7.4-5.4,10.9
		c-4.2,7.8-9.4,15.5-12.8,20.3c-1.3,1.9-3.9,2.3-5.7,0.9c-0.4-0.2-0.8-0.6-0.9-0.9c-3.3-4.6-8.5-12.4-12.8-19.9
		c-4-7.2-7.2-14.4-7.2-18.8c0-5,1.9-9.8,5-13.4C12.8,3.5,19.7,0.5,26.7,0.5"/>
	<path d="M117.4,36.7h-12.8c0,1.3,0.8,2.6,1.9,3.3c1.1,0.9,2.6,1.3,4,1.3c1.7,0,3.1-0.4,4.4-1.3c0.8-0.6,1.7-0.4,2.3,0.2l0,0
		c0.6,0.8,0.6,1.7-0.2,2.4c0,0,0,0-0.2,0.2c-1.9,1.3-4.2,2.1-6.7,2.1c-2.6,0-5-0.9-6.9-2.6c-1.9-1.9-2.9-4.4-2.7-7.2
		c-0.2-2.6,0.9-5.4,2.7-7.2c1.9-1.7,4.2-2.6,6.7-2.6s4.8,0.8,6.7,2.4c1.9,1.7,2.7,3.9,2.7,6.3v0.6C119.6,35.6,118.7,36.7,117.4,36.7
		L117.4,36.7z M104.6,33.6h10.9c0.2-1.5-0.4-2.7-1.5-3.7c-1.1-0.9-2.4-1.3-3.7-1.3c-1.5,0-2.7,0.6-3.9,1.3
		C105.4,30.9,104.6,32.1,104.6,33.6z"/>
	<path d="M127,34.1v8.3c0,1.1-0.9,2.1-2.1,2.1l0,0l0,0c-1.1,0-2.1-0.9-2.1-2.1l0,0V27.5c0-1.1,0.9-2.1,2.1-2.1l0,0l0,0
		c1.1,0,2.1,0.9,2.1,2.1V29c0.6-1.1,1.7-2.3,2.7-2.7c1.3-0.6,2.7-0.9,4.2-0.9c1.7,0,3.1,0.8,4.4,1.9c1.5,1.5,2.3,3.5,2.1,5.7v9.6
		c0,1.1-0.9,2.1-2.1,2.1l0,0l0,0c-1.1,0-2.1-0.9-2.1-2.1V34c0-3.5-1.5-5.2-4.2-5.2c-1.3,0-2.7,0.4-3.7,1.3
		C127.4,31.1,126.8,32.6,127,34.1z"/>
	<path d="M160.4,36.7h-12.8c0,1.3,0.8,2.6,1.9,3.3c1.1,0.9,2.6,1.3,4,1.3c1.7,0,3.1-0.4,4.4-1.3c0.8-0.6,1.7-0.4,2.3,0.2l0,0
		c0.6,0.8,0.6,1.7-0.2,2.4c0,0,0,0-0.2,0.2c-1.9,1.3-4.2,2.1-6.7,2.1c-5.2,0.2-9.4-3.9-9.6-9c0-0.2,0-0.6,0-0.8
		c-0.2-2.6,0.9-5.4,2.7-7.2c1.9-1.7,4.2-2.6,6.7-2.6c2.4,0,4.8,0.8,6.7,2.4s2.7,4,2.7,6.5v0.4C162.6,35.6,161.7,36.7,160.4,36.7
		L160.4,36.7z M147.7,33.6h10.9c0.2-1.5-0.4-2.7-1.5-3.7s-2.4-1.3-3.7-1.3c-1.5,0-2.7,0.6-3.9,1.3C148.2,30.9,147.7,32.1,147.7,33.6
		z"/>
	<path d="M394.8,36.7H382c0,1.3,0.8,2.6,1.9,3.3c1.1,0.9,2.6,1.3,4,1.3c1.5,0,2.9-0.4,4.2-1.3c0.8-0.6,1.7-0.4,2.3,0.2l0,0
		c0.6,0.8,0.6,1.7-0.2,2.4c0,0,0,0-0.2,0.2c-1.9,1.3-4.2,2.1-6.7,2.1c-2.6,0-5-0.9-6.9-2.6c-1.9-1.9-2.9-4.4-2.7-7.2
		c-0.2-2.6,0.9-5.4,2.7-7.2c1.9-1.7,4.2-2.6,6.7-2.6c2.4,0,4.8,0.8,6.7,2.4c1.9,1.7,2.7,3.9,2.6,6.3v0.6
		C396.9,35.6,395.9,36.7,394.8,36.7L394.8,36.7z M382,33.6h10.9c0.2-1.5-0.4-2.7-1.5-3.7s-2.4-1.3-3.7-1.3c-1.5,0-2.7,0.6-3.9,1.3
		C382.6,30.9,382,32.1,382,33.6z"/>
	<path d="M175.4,29.2c-1.5,0-2.9,0.8-4,1.9c-1.1,1.7-1.7,3.5-1.5,5.4v6.1c0,1.1-0.9,2.1-2.1,1.9l0,0c-1.1,0-2.1-0.9-2.1-2.1l0,0v-15
		c0-1.1,0.9-2.1,2.1-2.1l0,0l0,0c1.1,0,2.1,0.9,2.1,2.1l0,0v1.9c0.6-1.1,1.5-2.3,2.6-2.9c1.1-0.8,2.3-1.1,3.5-1.1v3.3L175.4,29.2z"
		/>
	<path d="M193.5,44.5h-2.3c-0.4,0-0.8-0.4-0.8-0.8v-0.2c0-0.4-0.4-0.8-0.8-0.8c-0.2,0-0.4,0-0.4,0.2c-1.5,1.1-3.3,1.9-5.2,1.7
		c-1.9,0-3.5-0.6-5-1.7c-1.3-1.1-2.1-2.7-1.9-4.4c-0.2-1.7,0.8-3.3,2.1-4.2c1.7-0.9,3.5-1.5,5.5-1.5h4.4c0.4,0,0.8-0.4,0.8-0.8l0,0
		c0-2.6-1.5-3.7-4.2-3.7c-1.9,0-3.5,0.6-5,1.7c-0.4,0.2-0.8,0.2-0.9-0.2l-0.9-1.5c-0.2-0.4-0.2-0.8,0.2-0.9l0,0
		c2.1-1.5,4.6-2.3,7.2-2.3c2.1-0.2,3.9,0.6,5.5,1.7c1.5,1.3,2.3,3.3,2.1,5.4v11.5C194.2,44.1,193.8,44.5,193.5,44.5L193.5,44.5z
		 M190.1,37.2v-0.9c0-0.4-0.4-0.8-0.8-0.8l0,0h-3.7c-2.9,0-4.2,0.9-4.2,2.7c0,0.9,0.4,1.7,1.1,2.1c2.1,1.1,4.4,0.9,6.3-0.4
		C189.6,39.5,190.1,38.6,190.1,37.2z"/>
	<path d="M351.8,44.5h-2.3c-0.4,0-0.8-0.4-0.8-0.8l0,0v-0.2c0-0.4-0.4-0.8-0.8-0.8c-0.2,0-0.4,0-0.4,0.2c-1.5,1.1-3.3,1.9-5.2,1.7
		c-1.9,0-3.5-0.6-4.8-1.7s-2.1-2.7-2.1-4.4c-0.2-1.7,0.8-3.3,2.1-4.2c1.7-0.9,3.5-1.5,5.5-1.5h4.4c0.4,0,0.8-0.4,0.8-0.8l0,0
		c0-2.6-1.5-3.7-4.2-3.7c-1.5,0-2.9,0.4-4.2,1.1c-0.8,0.4-1.7,0.2-2.1-0.4l0,0c-0.6-0.8-0.4-1.7,0.4-2.3l0,0
		c2.1-1.1,4.2-1.9,6.5-1.9c2.1-0.2,3.9,0.6,5.5,1.7c1.5,1.3,2.4,3.3,2.3,5.4v11.8C352.5,44.1,352.1,44.5,351.8,44.5L351.8,44.5z
		 M348.5,37.2v-0.9c0-0.4-0.4-0.8-0.8-0.8H344c-2.9,0-4.2,0.9-4.2,2.7c0,0.9,0.4,1.7,1.1,2.1c0.9,0.6,1.9,0.8,2.9,0.8
		s2.4-0.4,3.3-1.1C348.1,39.5,348.5,38.6,348.5,37.2z"/>
	<path d="M203.3,28.6v9.6c0,0.8,0.2,1.5,0.8,2.3c0.6,0.6,1.3,0.9,2.1,0.8c0.4,0,0.9-0.2,1.3-0.4c0.8-0.4,1.7-0.2,2.1,0.6v0.2
		c0.4,0.8,0.2,1.7-0.6,2.1c-1.1,0.8-2.3,0.9-3.5,0.9c-1.7,0-3.1-0.8-4.2-1.9c-1.3-1.3-1.9-2.9-1.9-4.8v-9.4H198
		c-0.6,0-1.1-0.4-1.1-0.9l0,0v-1.1c0-0.6,0.6-1.1,1.1-1.1h1.3v-3.7c0-1.1,0.9-2.1,2.1-2.1l0,0l0,0c1.1,0,2.1,0.8,2.1,1.9
		c0,0,0,0,0,0.2v3.9h3.3c0.9,0,1.7,0.8,1.7,1.7l0,0l0,0c0,0.9-0.8,1.7-1.7,1.7l0,0L203.3,28.6z"/>
	<path d="M212.5,21.7c-0.9-0.9-0.9-2.6,0-3.7c0.6-0.6,1.1-0.8,1.9-0.8c0.8,0,1.3,0.2,1.9,0.8c0.9,0.9,0.9,2.6,0,3.5l0,0
		c-0.6,0.6-1.1,0.8-1.9,0.8C213.6,22.5,213.1,22.1,212.5,21.7z M214.2,44.5L214.2,44.5c-1.1,0-2.1-0.9-2.1-2.1l0,0V27.5
		c0-1.1,0.9-2.1,2.1-2.1l0,0l0,0c1.1,0,2.1,0.9,2.1,2.1l0,0v14.9C216.2,43.5,215.2,44.5,214.2,44.5L214.2,44.5z"/>
	<path d="M236.7,41.8c-4,3.9-10.3,3.9-14.2,0s-3.9-10,0-13.8c4-3.7,10.3-3.7,14.2,0C240.6,31.9,240.6,38,236.7,41.8z M225.5,39.5
		c2.4,2.4,6.3,2.4,8.6,0c2.3-2.6,2.3-6.5,0-8.8c-2.4-2.4-6.3-2.4-8.6,0C223.1,33,223,36.9,225.5,39.5z"/>
	<path d="M247.1,34.1v8.3c0,1.1-0.9,2.1-2.1,2.1l0,0l0,0c-1.1,0-2.1-0.9-2.1-2.1l0,0V27.5c0-1.1,0.9-2.1,2.1-2.1l0,0l0,0
		c1.1,0,2.1,0.9,2.1,2.1V29c0.6-1.1,1.7-2.3,2.7-2.7c1.3-0.8,2.7-0.9,4.2-0.9c1.7,0,3.1,0.8,4.4,1.9c1.5,1.5,2.3,3.5,2.1,5.7v9.6
		c0,1.1-0.9,2.1-2.1,2.1l0,0l0,0c-1.1,0-2.1-0.9-2.1-2.1l0,0v-8.3c0-3.5-1.5-5.2-4.4-5.2c-1.3,0-2.7,0.4-3.7,1.3
		C247.4,31.1,247.1,32.6,247.1,34.1z"/>
	<path d="M283.5,44.5L283.5,44.5c-1.5,0-2.7-0.9-3.3-2.3l-8-19.7c-0.4-1.1,0-2.4,1.1-2.7c0.2-0.2,0.6-0.2,0.8-0.2l0,0
		c0.9,0,1.7,0.6,2.1,1.3l7,17.4l7.2-17.4c0.4-0.8,1.1-1.3,2.1-1.3l0,0c1.3,0,2.3,0.9,2.3,2.3c0,0.4,0,0.6-0.2,0.9l-8,19.7
		C286,43.5,284.8,44.5,283.5,44.5z"/>
	<path d="M312,41.8c-4,3.9-10.3,3.9-14.2,0s-3.9-10,0-13.8c4-3.7,10.3-3.7,14.2,0C315.8,31.9,315.8,38,312,41.8z M300.7,39.5
		c2.4,2.4,6.3,2.4,8.5,0c2.3-2.6,2.3-6.5,0-8.8c-2.4-2.4-6.3-2.4-8.5,0C298.4,33,298.4,36.9,300.7,39.5z"/>
	<path d="M320.4,52.1c-1.1,0-2.3-0.2-3.1-0.8c-0.9-0.6-1.3-1.7-0.8-2.6l0,0l0,0c0.4-0.9,1.5-1.3,2.4-0.9c0.4,0.2,0.8,0.2,1.1,0.2
		c0.9,0,1.7-0.4,2.3-0.9c0.6-0.6,0.8-1.3,0.8-2.1c0-0.4-2.3-6.1-6.9-17.4c-0.4-0.8,0-1.7,0.9-2.1c0.2,0,0.4-0.2,0.6-0.2h0.9
		c0.6,0,1.1,0.4,1.5,0.9l5.4,13.2l5.4-13c0.2-0.6,0.8-0.9,1.5-0.9h0.9c0.9,0,1.5,0.8,1.5,1.7c0,0.2,0,0.4-0.2,0.6L326,48.2
		c-0.6,1.1-1.3,2.3-2.4,2.9C322.7,51.7,321.5,52.1,320.4,52.1z"/>
	<path d="M372.4,25.5c1.1,0,2.1,0.9,2.1,2.1v14.6c0.6,5-3.1,9.4-8.1,10c-0.6,0-1.1,0-1.7,0c-2.3,0-4.2-0.6-6.3-1.7
		c-0.9-0.6-1.1-1.7-0.6-2.6l0,0c0.6-0.8,1.5-1.1,2.4-0.6c1.3,0.8,2.7,1.1,4.2,1.1c1.7,0.2,3.1-0.4,4.4-1.5c1.3-1.3,1.9-2.9,1.7-4.6
		V40c-0.6,1.1-1.5,2.1-2.6,2.6c-1.1,0.8-2.4,0.9-3.7,0.9c-2.4,0-4.6-0.9-6.3-2.6c-1.7-1.9-2.6-4-2.4-6.5c0-2.4,0.8-4.8,2.4-6.5
		c1.7-1.7,3.9-2.6,6.1-2.6c2.4,0,4.8,1.1,6.1,3.1v-0.9C370.5,26.3,371.3,25.5,372.4,25.5L372.4,25.5L372.4,25.5z M359.8,34.1
		c0,1.5,0.6,2.9,1.5,4s2.4,1.9,3.9,1.7c1.5,0,2.9-0.6,3.9-1.7c1.1-1.1,1.7-2.6,1.5-4c0-1.5-0.6-2.9-1.5-4s-2.4-1.7-3.9-1.7
		s-2.9,0.6-3.9,1.7S359.8,32.6,359.8,34.1L359.8,34.1z"/>
	<path d="M98.3,32.6c0.2,3.1-1.1,6.1-3.3,8.3c-4.4,4.8-12.2,5.2-17,0.6c-0.2-0.2-0.4-0.4-0.6-0.6l0,0c-4.8-5.2-4.8-13.3,0-18.5
		c4.4-4.8,12-5.2,17-0.8c0.2,0.2,0.4,0.4,0.8,0.8l0,0c0.4,0.4,0.6,0.9,0.6,1.5c0,1.1-0.9,2.1-2.1,2.1l0,0c-0.6,0-1.1-0.2-1.5-0.8
		c-1.5-1.7-3.7-2.4-5.9-2.4c-2.2,0-4.4,0.9-5.9,2.6c-3.3,3.5-3.3,8.8,0,12.6l0,0c3.1,3.3,8.3,3.5,11.5,0.4c0.2-0.2,0.2-0.2,0.4-0.4
		c0.9-0.9,1.7-2.1,1.9-3.1h-6.1C87,34.9,86,34,86,32.8l0,0l0,0c0-1.1,0.9-2.1,2.1-2.1l0,0h8.3C97.4,30.7,98.3,31.5,98.3,32.6z"/>
</g>
</svg>
